<?xml version="1.0" encoding="UTF-8" standalone="no"?>
<!-- Created with Inkscape (http://www.inkscape.org/) -->

<svg
   xmlns:dc="http://purl.org/dc/elements/1.1/"
   xmlns:cc="http://creativecommons.org/ns#"
   xmlns:rdf="http://www.w3.org/1999/02/22-rdf-syntax-ns#"
   xmlns:svg="http://www.w3.org/2000/svg"
   xmlns="http://www.w3.org/2000/svg"
   xmlns:sodipodi="http://sodipodi.sourceforge.net/DTD/sodipodi-0.dtd"
   xmlns:inkscape="http://www.inkscape.org/namespaces/inkscape"
   width="850"
   height="555"
   id="svg2"
   version="1.1"
   inkscape:version="0.48.5 r10040"
   sodipodi:docname="drawing.svg">
  <defs
     id="defs4" />
  <sodipodi:namedview
     id="base"
     pagecolor="#ffffff"
     bordercolor="#666666"
     borderopacity="1.0"
     inkscape:pageopacity="0.0"
     inkscape:pageshadow="2"
     inkscape:zoom="0.70000001"
     inkscape:cx="284.69864"
     inkscape:cy="352.51382"
     inkscape:document-units="px"
     inkscape:current-layer="layer1"
     showgrid="false"
     inkscape:object-paths="true"
     inkscape:snap-nodes="true"
     fit-margin-left="0"
     fit-margin-top="0"
     fit-margin-right="0"
     fit-margin-bottom="0"
     inkscape:window-width="1366"
     inkscape:window-height="705"
     inkscape:window-x="-8"
     inkscape:window-y="-8"
     inkscape:window-maximized="1" />
  <metadata
     id="metadata7">
    <rdf:RDF>
      <cc:Work
         rdf:about="">
        <dc:format>image/svg+xml</dc:format>
        <dc:type
           rdf:resource="http://purl.org/dc/dcmitype/StillImage" />
        <dc:title />
      </cc:Work>
    </rdf:RDF>
  </metadata>
  <g
     inkscape:label="Layer 1"
     inkscape:groupmode="layer"
     id="layer1"
     transform="translate(-506.38737,72.3387)">
    <path
       sodipodi:type="spiral"
       style="fill:none;stroke:#000000;stroke-width:1px;stroke-linecap:butt;stroke-linejoin:miter;stroke-opacity:1"
       id="path2989"
       sodipodi:cx="177.14285"
       sodipodi:cy="380.93362"
       sodipodi:expansion="1"
       sodipodi:revolution="2.7590036"
       sodipodi:radius="295.95309"
       sodipodi:argument="-16.852411"
       sodipodi:t0="0"
       d="m 177.14285,380.93362 c -6.67251,14.69041 -23.09435,-1.74668 -24.41642,-11.09014 -3.58271,-25.32022 24.94441,-40.31353 46.59672,-37.74269 38.73091,4.59861 58.87751,46.72679 51.06896,82.10328 C 238.93275,466.1205 181.64237,492.04376 132.78226,478.5993 67.659413,460.67995 35.819841,387.74842 55.060758,325.48288 79.273489,247.12806 168.0483,209.31655 243.68374,234.43511 335.28841,264.85706 379.10067,369.57895 348.05779,458.56466 311.47482,563.43124 190.74544,613.26143 88.421664,576.26498 -29.71519,533.55111 -85.57445,396.77599 -42.604917,281.12229 6.2197965,149.7092 159.06644,87.813157 288.04434,136.76944 c 144.69371,54.92154 212.63208,223.85792 157.67912,366.15582 -2.01058,5.20629 -4.16919,10.3554 -6.47188,15.43925"
       transform="matrix(0.82313638,-0.56784375,0.56784375,0.82313638,397.33223,6.0093605)" />
    <path
       sodipodi:type="spiral"
       style="fill:none;stroke:#000000;stroke-width:1px;stroke-linecap:butt;stroke-linejoin:miter;stroke-opacity:1"
       id="path2991"
       sodipodi:cx="464.68896"
       sodipodi:cy="403.5144"
       sodipodi:expansion="1"
       sodipodi:revolution="2.8369031"
       sodipodi:radius="157.33202"
       sodipodi:argument="-17.28933"
       sodipodi:t0="0"
       d="m 464.68896,403.5144 c 0.0882,8.34143 -11.20057,4.23422 -13.86399,0.14655 -7.21771,-11.07733 2.86554,-24.34187 13.5709,-27.87453 19.14937,-6.31911 37.8035,9.00808 41.88508,27.28834 5.98987,26.82702 -15.17621,51.5043 -41.0058,55.89562 -34.42678,5.85294 -65.2974,-21.34583 -69.90615,-54.72324 -5.79965,-42.00207 27.51432,-79.13631 68.44068,-83.9167 49.56731,-5.78969 93.00138,33.68182 97.92724,82.15814 5.80495,57.12766 -39.84862,106.88282 -95.87558,111.93777 C 401.176,520.2625 345.08616,468.41138 339.91302,404.83333 334.03497,332.5919 392.09404,270.15813 463.2235,264.87447 543.02,258.947 611.80429,323.22132 617.1929,401.90239 c 1.93386,28.23698 -4.14441,56.7887 -17.19292,81.88836"
       transform="matrix(0.82313638,-0.56784375,0.56784375,0.82313638,397.33223,6.0093605)" />
    <path
       sodipodi:type="spiral"
       style="fill:none;stroke:#000000;stroke-width:1px;stroke-linecap:butt;stroke-linejoin:miter;stroke-opacity:1"
       id="path2993"
       sodipodi:cx="602.85712"
       sodipodi:cy="543.79077"
       sodipodi:expansion="1"
       sodipodi:revolution="2.8369031"
       sodipodi:radius="168.74083"
       sodipodi:argument="-15.177136"
       sodipodi:t0="0"
       d="m 602.85712,543.79077 c -7.71562,-4.52928 2.29877,-12.63508 7.52797,-12.82386 14.17079,-0.51157 20.78963,16.08763 18.11975,27.8798 -4.7758,21.09342 -29.17373,29.76768 -48.23163,23.41564 -27.96824,-9.32186 -38.9514,-42.41551 -28.71154,-68.58345 13.64814,-34.87775 55.70971,-48.21915 88.93529,-34.00743 41.811,17.884 57.52961,69.02818 39.30332,109.28711 -22.07448,48.75896 -82.36019,66.86468 -129.63894,44.59921 -55.71637,-26.23907 -76.21517,-95.70061 -49.89511,-149.99077 30.38755,-62.68013 109.04666,-85.57594 170.3426,-55.19099 69.64834,34.52531 94.94393,122.39665 60.48689,190.69443 -38.65559,76.61977 -135.74954,104.31715 -211.04626,65.78278 -27.02241,-13.82918 -49.90579,-35.19653 -65.76378,-61.06249"
       transform="matrix(0.82313638,-0.56784375,0.56784375,0.82313638,397.33223,6.0093605)" />
    <path
       sodipodi:type="spiral"
       style="fill:none;stroke:#000000;stroke-width:1px;stroke-linecap:butt;stroke-linejoin:miter;stroke-opacity:1"
       id="path2995"
       sodipodi:cx="454.28568"
       sodipodi:cy="623.79077"
       sodipodi:expansion="1"
       sodipodi:revolution="2.8369031"
       sodipodi:radius="229.6337"
       sodipodi:argument="-19.656326"
       sodipodi:t0="0"
       d="m 454.28568,623.79077 c 8.42334,-8.79132 16.0063,7.01718 14.61175,14.00016 -3.77916,18.92345 -27.83853,22.46681 -42.61208,15.22335 -26.42641,-12.95685 -30.23863,-47.98836 -15.83494,-71.22399 21.13801,-34.09922 68.40904,-38.23384 99.83591,-16.44653 41.88708,29.03904 46.32379,88.9255 17.05813,128.44782 -36.82786,49.7348 -109.48757,54.46268 -157.05974,17.66972 -57.61627,-44.56121 -62.62988,-130.07529 -18.28131,-185.67166 52.26325,-65.51839 150.67899,-70.81486 214.28356,-18.8929 73.434,59.94595 79.01171,171.29338 19.5045,242.89548 -67.61587,81.35886 -191.91527,87.21684 -271.5074,20.11609 -89.29034,-75.27689 -95.42799,-212.54262 -20.72768,-300.11931 26.80837,-31.42944 62.29585,-55.00803 101.53027,-67.87006"
       transform="matrix(0.82313638,-0.56784375,0.56784375,0.82313638,397.33223,6.0093605)" />
    <path
       style="fill:#008080;fill-rule:evenodd;stroke:none"
       d="m 1157.6677,369.66761 c -31.2574,13.53641 -71.1704,11.1717 -101.9848,-6.04212 -50.8118,-28.38503 -75.63439,-82.88378 -64.59473,-141.81933 2.56665,-13.70237 6.11179,-25.91033 7.87819,-27.12889 1.76624,-1.21846 9.61274,-2.84428 17.43654,-3.61295 7.8238,-0.7686 18.6495,-3.38821 24.0572,-5.82136 l 9.8322,-4.42388 2.391,17.94774 c 4.6162,34.65317 2.2824,70.83158 -7.2613,112.56462 -2.2499,9.83888 -3.1304,18.06506 -1.9565,18.28045 3.0045,0.55151 11.2907,-34.84215 14.0982,-60.21896 2.5556,-23.09894 2.2132,-59.12228 -0.736,-77.52655 -1.6754,-10.45205 -0.9593,-12.15996 7.6405,-18.22963 5.219,-3.68344 13.442,-10.72527 18.2729,-15.64844 7.309,-7.44812 8.9601,-8.22281 9.8338,-4.61349 0.5778,2.38591 5.006,10.07223 9.8408,17.08068 l 8.7904,12.74259 -15.8393,11.00288 c -18.5878,12.91252 -27.6667,26.47924 -30.6597,45.81581 -2.5557,16.51356 -0.047,26.65583 10.3055,41.66269 9.6727,14.02123 25.6599,22.92013 39.4343,21.94988 13.1166,-0.92421 29.607,-12.94335 33.0622,-24.09825 2.6938,-8.69638 2.9413,-8.88406 8.1675,-6.19283 6.5211,3.35773 38.7916,5.19664 55.8304,3.18147 l 12.3527,-1.46114 -3.1763,17.27914 c -6.321,34.38484 -29.483,62.8081 -63.0158,77.32985 z"
       id="path2997"
       inkscape:connector-curvature="0" />
    <path
       style="fill:none;stroke:#000000;stroke-width:1px;stroke-linecap:butt;stroke-linejoin:miter;stroke-opacity:1"
       d="M 830.21435,482.56104 C 560.63695,59.499308 560.63695,59.499308 560.63695,59.499308 L 1305.2171,229.71872 z"
       id="path3009"
       inkscape:connector-curvature="0" />
    <path
       style="fill:none;stroke:#000000;stroke-width:1px;stroke-linecap:butt;stroke-linejoin:miter;stroke-opacity:1"
       d="M 600.31599,384.6155 C 1015.9672,-69.556234 1014.0358,-69.532114 1014.0358,-69.532114 l 288.5003,301.829494"
       id="path3011"
       inkscape:connector-curvature="0" />
    <path
       style="fill:#00ffff;fill-rule:evenodd;stroke:none"
       d="m 1266.3962,161.61185 c -3.7377,-5.41769 -12.248,-14.56648 -18.9119,-20.33057 -11.2552,-9.735 -12.0774,-11.10553 -11.5647,-19.27942 0.8087,-12.88483 -9.6558,-26.737989 -21.8923,-28.983889 -11.364,-2.085702 -14.973,-0.20002 -18.6747,9.758349 -2.5272,6.79837 -3.0732,7.01115 -8.6604,3.3712 -9.5424,-6.216389 -33.6341,-32.41883 -32.8805,-35.760864 0.3773,-1.678318 2.5682,-5.406296 4.8655,-8.285086 3.448,-4.320613 4.455,-4.326162 5.7695,-0.03134 1.5086,4.930467 1.6213,4.864778 2.1438,-1.252156 0.7348,-8.590207 15.2623,-18.316492 31.7923,-21.28481 29.3171,-5.264561 59.0143,8.331082 77.8081,35.620777 13.6054,19.755998 17.3722,47.877239 9.5701,71.444389 -8.2165,24.81715 -11.0737,27.03231 -19.3648,15.01341 z"
       id="path3015"
       inkscape:connector-curvature="0" />
    <path
       style="fill:#00ffff;fill-rule:evenodd;stroke:none"
       d="m 817.38816,421.45157 -18.11843,6.4409 -10.87768,-15.92535 c -5.98288,-8.75904 -20.61567,-30.53659 -32.51745,-48.39459 -20.46739,-30.71019 -21.28124,-32.4268 -15.02779,-31.6899 3.63661,0.4284 13.102,-0.002 21.03434,-0.95634 12.5103,-1.50513 17.69712,-3.99397 39.11672,-18.77042 22.29805,-15.3824 25.55642,-18.57524 33.58074,-32.90608 20.85337,-37.24243 11.63357,-84.36719 -21.16217,-108.16501 l -9.62615,-6.98519 16.63378,-17.81668 c 9.14865,-9.79917 18.47058,-18.26115 20.71531,-18.80451 2.24473,-0.54334 16.36403,2.01988 31.37621,5.69598 24.18037,5.92128 28.39906,7.95027 36.97151,17.78231 l 9.6766,11.09834 -6.73231,22.44996 c -3.70286,12.34747 -7.64541,32.54547 -8.76125,44.88453 -2.19429,24.26344 4.14192,73.88224 11.50306,90.08081 2.50922,5.52158 4.09506,12.58715 3.52311,15.70148 -3.88904,21.18956 -65.2765,73.47053 -101.30805,86.27961 z"
       id="path3017"
       inkscape:connector-curvature="0" />
    <path
       style="fill:#00ffff;fill-rule:evenodd;stroke:none"
       d="M 851.73167,71.235267 C 802.90781,45.091452 734.54922,47.337284 692.31544,76.472336 L 680.43852,84.665656 623.29231,71.65646 C 580.72679,61.966362 566.61469,57.578577 567.98283,54.4591 c 10.45434,-23.835429 79.5376,-75.799085 119.27637,-89.718168 53.40343,-18.705596 114.28275,-19.305456 169.44074,-1.669908 20.25268,6.475457 47.79246,18.682056 47.22299,20.930953 -0.19054,0.75206 -3.64526,6.7740947 -7.67738,13.3822327 -10.70496,17.5432263 -16.89644,37.6701653 -18.27109,59.3948673 -0.66631,10.52945 -1.9521,20.708899 -2.85721,22.620862 -1.0491,2.215772 -9.52913,-0.744942 -23.38558,-8.164672 l 0,0 z"
       id="path3019"
       inkscape:connector-curvature="0" />
    <path
       style="fill:#00ffff;fill-rule:evenodd;stroke:none"
       d="M 850.26975,69.035 C 799.31887,44.871084 734.94742,47.062503 695.45637,74.305708 L 681.88224,83.6697 630.91046,71.653987 c -54.57719,-12.865584 -59.26299,-14.37501 -59.50438,-19.16811 -0.61641,-12.241438 83.58994,-74.783776 115.98666,-86.146562 42.11333,-14.770829 99.15559,-17.820309 144.32142,-7.714987 20.35836,4.554845 65.96517,20.711909 68.39129,24.22896 0.49729,0.720001 -3.12787,9.1059557 -8.05505,18.6349775 -5.18971,10.0365135 -11.09446,29.5245525 -14.03555,46.3225515 -2.79218,15.948692 -5.64862,29.396205 -6.34782,29.883417 -0.69914,0.487132 -10.32778,-3.409435 -21.39742,-8.659296 z"
       id="path3021"
       inkscape:connector-curvature="0" />
    <path
       style="fill:#00ffff;fill-rule:evenodd;stroke:none"
       d="m 1202.3031,272.75502 c -25.3647,1.13933 -53.2012,-4.43431 -58.1782,-11.64878 -4.9012,-7.10468 -11.9868,-9.04299 -17.9693,-4.91582 -5.599,3.8625 -2.8615,7.28142 9.3904,11.72782 l 10.0687,3.6542 -2.5048,8.50927 c -3.345,11.36584 -20.5168,20.80159 -34.299,18.84761 -37.266,-5.28293 -53.1627,-51.9769 -29.0217,-85.24535 8.8228,-12.15932 23.485,-23.16278 32.1717,-24.14413 3.2329,-0.36514 11.4451,3.32436 18.2487,8.19917 15.7409,11.2785 40.3732,19.46013 59.4646,19.75117 14.5461,0.2218 15.0473,0.50514 21.4901,12.1603 6.9927,12.64908 13.2136,38.61496 9.8134,40.96054 -1.1132,0.76781 -9.5167,1.73268 -18.6747,2.14401 z"
       id="path3023"
       inkscape:connector-curvature="0" />
    <path
       style="fill:#008080;fill-rule:evenodd;stroke:none"
       d="m 739.95822,225.29542 c -4.43685,-0.81427 -12.56852,-14.67441 -12.27586,-20.92341 0.4899,-10.45986 9.58839,-26.988 18.02488,-32.74326 10.2095,-6.96493 30.00546,-10.62645 42.32523,-7.8287 l 9.25954,2.10273 -24.34212,26.34927 c -13.38846,14.49184 -25.68243,27.96638 -27.32031,29.9434 -1.63791,1.97698 -4.18998,3.372 -5.6712,3.10005 l 0,0 z"
       id="path3025"
       inkscape:connector-curvature="0" />
    <path
       style="fill:#87decd;fill-rule:evenodd;stroke:none"
       d="m 1000.057,390.35859 c -13.56227,7.167 -25.61708,12.85496 -26.78836,12.63991 -4.04946,-0.74302 -32.90734,-38.42295 -40.27153,-52.5826 l -7.39124,-14.21159 9.24085,-19.7271 c 16.8687,-36.01104 22.06425,-81.72975 13.62193,-119.86806 l -3.80748,-17.20066 14.52003,5.53638 c 7.986,3.04496 19.46313,6.01046 25.50483,6.58994 l 10.98479,1.05358 -3.75334,7.2892 c -5.45561,10.59506 -9.35387,43.76175 -7.34462,62.48894 3.98109,37.10443 24.93254,73.87336 55.52634,97.44588 5.0126,3.86217 4.6979,4.54055 -5.0177,10.81789 -5.7012,3.68353 -21.4621,12.56124 -35.0245,19.72829 z"
       id="path3029"
       inkscape:connector-curvature="0" />
    <path
       style="fill:#87decd;fill-rule:evenodd;stroke:none"
       d="m 1301.8285,228.00941 c -0.2477,-0.39308 -2.9042,-7.61249 -5.9024,-16.044 -2.9982,-8.4316 -8.4718,-19.73558 -12.1639,-25.12003 -6.4159,-9.35677 -6.3754,-10.48262 0.9129,-25.4515 15.2306,-31.28063 13.1318,-61.635179 -6.2146,-89.877395 -24.7798,-36.173595 -63.4776,-47.039569 -102.1629,-28.686537 -8.8213,4.184983 -10.3258,4.014577 -12.15,-1.37484 -1.1452,-3.383181 -6.1039,-14.705487 -11.0201,-25.160748 l -8.9378,-19.0094383 9.2408,-4.336549 c 35.6593,-16.7351577 70.0214,-18.2568967 104.0087,-4.6060477 24.9625,10.0260807 36.2157,17.2922825 52.3373,33.794981 43.3613,44.386812 51.7054,115.990794 19.9068,170.835894 -9.9559,17.1724 -26.2173,37.62605 -27.8545,35.0362 z"
       id="path3031"
       inkscape:connector-curvature="0" />
    <path
       style="fill:#87decd;fill-rule:evenodd;stroke:none"
       d="m 1057.3806,124.0418 c -11.4839,6.99564 -15.8724,8.43913 -17.6821,5.81581 -2.4812,-3.59665 -1.6804,-5.17496 7.7617,-15.29128 3.0465,-3.26405 7.1201,-12.62083 9.0525,-20.792969 9.4488,-39.958524 -31.1386,-71.062386 -60.8712,-46.64813 -2.81827,2.313994 -5.10465,1.433864 -8.36914,-3.221989 -2.47058,-3.523025 -10.55657,-12.175255 -17.96933,-19.226575 L 955.82511,11.856093 973.28967,1.4192927 c 28.91163,-17.2777777 58.12203,-17.7706107 87.69503,-1.48015501 13.468,7.41880681 19.1598,12.44362931 27.0463,23.87565631 l 9.9887,14.479545 -8.5459,20.249528 c -4.9501,11.728829 -8.6136,26.939489 -8.7066,36.147544 -0.088,8.743749 -1.9498,16.830949 -4.1359,17.971679 -2.1862,1.14063 -10.8491,6.26101 -19.2502,11.37879 l 0,0 z"
       id="path3033"
       inkscape:connector-curvature="0" />
    <path
       style="fill:#87decd;fill-rule:evenodd;stroke:none"
       d="m 776.38406,322.75037 c -7.25682,2.47818 -19.44225,4.6263 -27.07858,4.77359 l -13.8841,0.26765 -17.4502,-25.29547 -17.45027,-25.29553 20.60527,-22.13947 c 16.86872,-18.12493 22.06236,-22.39929 28.64115,-23.57162 8.52323,-1.51895 14.59759,-7.65732 11.71401,-11.83727 -1.20967,-1.75344 -2.59622,-0.82679 -4.60752,3.07895 -1.84659,3.58646 -3.94906,5.11705 -5.87111,4.27407 -1.64664,-0.72229 -0.95859,-3.54979 1.52924,-6.28334 54.54775,-59.93909 47.78872,-55.62646 64.82117,-41.36058 37.1042,31.07738 30.97572,93.56802 -12.46196,127.07209 -8.49757,6.55415 -21.18522,13.81638 -28.50708,16.31692 z"
       id="path3035"
       inkscape:connector-curvature="0" />
    <path
       style="fill:#80ffe6;fill-rule:evenodd;stroke:none"
       d="m 1193.1245,442.48394 c -60.0806,25.06592 -121.0118,22.30945 -176.5426,-7.9864 -17.10874,-9.33381 -38.02049,-24.73813 -37.49204,-27.61768 0.16346,-0.89293 12.05742,-7.90959 26.42994,-15.59246 46.5467,-24.88166 43.7888,-24.10466 60.5969,-17.06963 20.7637,8.69077 40.3596,10.74273 65.8126,6.89185 20.2884,-3.06902 23.0425,-4.27785 46.2669,-20.29913 23.0395,-15.894 25.3843,-18.26149 35.0004,-35.33751 5.7716,-10.24979 11.3344,-25.55631 12.6433,-34.79013 l 2.3374,-16.48831 15.5708,-4.81567 c 9.0904,-2.81142 23.6871,-10.32639 35.0726,-18.05679 10.726,-7.28273 19.9469,-12.59567 20.4911,-11.80662 4.0707,5.90091 4.838,45.18826 1.2661,64.82209 -8.6923,47.77631 -32.5669,86.00376 -72.3113,115.78225 -12.7593,9.55971 -28.5731,19.62347 -35.142,22.36409 l 0,0 z"
       id="path3037"
       inkscape:connector-curvature="0" />
    <path
       style="fill:#80ffe6;fill-rule:evenodd;stroke:none"
       d="m 688.01367,255.86858 c -6.09193,-9.78842 -21.82186,-34.74811 -34.95549,-55.46614 l -23.87922,-37.66891 7.31254,-16.28574 c 7.83523,-17.44885 23.87764,-39.48551 36.59418,-50.267119 7.64305,-6.480065 9.561,-6.243726 82.50733,10.164639 41.07548,9.23955 75.28596,17.67378 76.02356,18.74299 0.73762,1.06906 -5.92136,9.80488 -14.79751,19.41297 l -16.13838,17.46905 -14.25271,-2.40277 c -17.30796,-2.91781 -27.4513,-0.65318 -41.98686,9.37412 -20.99539,14.48373 -26.97977,41.13677 -12.52081,55.76371 l 6.27706,6.34997 -15.52369,16.55629 c -8.53814,9.10599 -17.33738,18.69337 -19.55414,21.30485 -3.87026,4.56065 -4.46913,4.04361 -15.10611,-13.04833 z"
       id="path3039"
       inkscape:connector-curvature="0" />
    <path
       style="fill:#80ffe6;fill-rule:evenodd;stroke:none"
       d="m 1013.5193,132.16122 c -4.1187,0.9481 -13.3533,0.77928 -20.52144,-0.37515 -46.77894,-7.53366 -70.09884,-55.565662 -48.09141,-99.053632 9.10662,-17.995242 9.47507,-17.953532 29.90428,3.376669 14.38893,15.023564 14.55047,15.34595 12.70955,25.376096 -1.02559,5.587515 -0.0583,12.777608 2.14942,15.977612 3.98473,5.776375 14.5008,9.493334 18.6881,6.604495 2.5362,-1.749617 10.5096,9.194271 19.1196,26.24284 5.456,10.80337 5.4351,12.33368 -0.2189,16.03515 -3.438,2.25064 -9.6206,4.86784 -13.7392,5.81592 z"
       id="path3041"
       inkscape:connector-curvature="0" />
    <path
       style="fill:#80ffe6;fill-rule:evenodd;stroke:none"
       d="m 1211.8952,205.89779 c -9.3288,-2.05769 -21.4048,-7.10628 -26.8359,-11.21908 -12.3186,-9.3285 -39.123,-16.25322 -54.8312,-14.16539 -10.4196,1.38493 -12.9062,0.41968 -19.9897,-7.75906 -11.3779,-13.13714 -18.7478,-28.02081 -15.1163,-30.52626 1.6689,-1.15125 6.0248,-9.70013 9.68,-18.99751 6.9872,-17.77283 11.0162,-20.57632 28.5458,-19.86309 5.7973,0.23583 6.3323,0.96262 7.6775,10.43405 2.0142,14.17604 20.8023,37.86421 33.4629,42.19111 13.2265,4.52024 31.022,3.80217 38.803,-1.5658 7.249,-5.00072 6.8493,-5.2363 28.3212,16.67816 18.1794,18.55411 18.098,17.2493 1.7781,28.50762 -14.1734,9.77771 -14.9562,9.93377 -31.4959,6.28554 z"
       id="path3043"
       inkscape:connector-curvature="0" />
    <path
       style="fill:#80ffe6;fill-rule:evenodd;stroke:none"
       d="m 1068.1045,-15.756803 c -42.24,-44.223581 -45.9086,-48.564001 -42.8386,-50.681721 1.1058,-0.76305 11.1802,0.56131 22.3877,2.94295 31.361,6.66393 71.6952,32.076901 87.6741,55.2394767 3.3427,4.845375 2.7077,6.346227 -4.946,11.6986308 -4.8294,3.377106 -11.997,9.6732245 -15.9281,13.9916005 l -7.148,7.851367 -39.2011,-41.042304 z"
       id="path3045"
       inkscape:connector-curvature="0" />
    <path
       style="fill:#80ffe6;fill-rule:evenodd;stroke:none"
       d="m 919.50143,319.78515 c -14.59721,-37.91438 -15.92619,-93.4172 -3.18862,-133.17107 3.33729,-10.41581 6.66032,-19.34654 7.38442,-19.8461 0.72418,-0.49946 4.70113,1.56719 8.83774,4.59269 13.60392,9.94979 19.25584,51.09205 12.7708,92.96513 -3.2278,20.84231 -15.86649,58.14906 -20.86862,61.59977 -1.11759,0.77089 -3.33887,-1.99189 -4.93572,-6.14042 z"
       id="path3047"
       inkscape:connector-curvature="0" />
    <path
       style="fill:#37c8ab;fill-rule:evenodd;stroke:none"
       d="m 769.19149,432.6434 c -45.82853,5.6378 -89.4247,-3.36174 -133.18554,-27.49352 -15.3796,-8.48117 -28.82233,-16.67435 -29.87293,-18.20734 -1.05041,-1.53311 -0.43496,-4.61122 1.36816,-6.84025 7.44501,-9.20532 64.3125,-70.7675 65.16168,-70.54161 0.50663,0.13494 7.59046,3.90068 15.74179,8.36848 8.15155,4.46789 21.48139,9.69828 29.62195,11.6233 l 14.80094,3.5 30.35577,48.29776 30.3554,48.29793 -24.34717,2.99549 z"
       id="path3049"
       inkscape:connector-curvature="0" />
    <path
       style="fill:#37c8ab;fill-rule:evenodd;stroke:none"
       d="m 927.72911,140.62291 c -1.31655,-0.24158 -6.98175,-7.08987 -12.5892,-15.21837 -5.60748,-8.12852 -14.96694,-19.27489 -20.79878,-24.76972 -16.68804,-15.72354 -16.15606,-17.440175 16.41067,-52.937712 15.60425,-17.009403 29.86378,-32.725607 31.68699,-34.925571 2.06953,-2.497165 4.20416,-2.710775 5.68198,-0.568648 1.30188,1.887189 0.34505,5.732001 -2.12626,8.544032 -7.14368,8.128499 -14.3285,31.678422 -14.05133,46.056343 0.14006,7.26216 3.52903,20.891612 7.53118,30.287617 7.23311,16.981659 7.22689,17.164119 -1.03752,30.527619 -4.57266,7.39407 -9.39111,13.24609 -10.70773,13.00441 l 0,0 z"
       id="path3051"
       inkscape:connector-curvature="0" />
    <path
       style="fill:#37c8ab;fill-rule:evenodd;stroke:none"
       d="m 1131.3376,50.582664 c -8.9008,-9.695153 -17.0081,-18.825536 -18.0162,-20.290028 -1.9842,-2.876602 11.6803,-19.750539 21.4492,-26.4896585 7.1456,-4.9291798 8.4204,-3.42975381 18.4784,21.7348875 8.7698,21.939801 8.8469,27.439937 0.5089,36.154155 l -6.2369,6.51799 -16.1834,-17.627346 z"
       id="path3053"
       inkscape:connector-curvature="0" />
    <path
       style="fill:#37c8ab;fill-rule:evenodd;stroke:none"
       d="m 1029.9911,106.80277 c -3.8492,-7.557379 -13.3867,-23.000882 -21.1946,-34.319014 l -14.1961,-20.578376 6.5503,-4.518841 c 14.0145,-9.667936 34.4184,-4.019684 45.9701,12.725294 10.1514,14.71515 7.8887,40.447037 -4.793,54.511157 l -5.3384,5.92042 -6.9983,-13.74061 0,0 z"
       id="path3055"
       inkscape:connector-curvature="0" />
    <path
       style="fill:#008080;fill-rule:evenodd;stroke:none"
       d="m 1199.4094,153.71568 c -25.7612,4.62788 -55.0862,-19.19294 -54.399,-44.18854 0.1699,-6.17772 1.23,-6.39041 18.2848,-3.67143 18.9418,3.01969 17.4386,1.9534 48.8228,34.62877 7.7301,8.04817 5.9759,9.87461 -12.7086,13.2312 l 0,0 z"
       id="path3059"
       inkscape:connector-curvature="0" />
    <path
       style="fill:#008080;fill-rule:evenodd;stroke:none"
       d="m 1090.6558,19.091388 c -15.7462,-18.80890331 -33.5973,-28.8659223 -59.1736,-33.337268 -16.9172,-2.957328 -24.7305,-2.473494 -40.29422,2.494725 -10.61932,3.3898687 -23.26655,9.3467277 -28.1051,13.2375405 -4.8386,3.890589 -9.75413,6.171946 -10.92349,5.069671 -1.89138,-1.783112 59.41481,-72.4462405 62.30021,-71.8090405 3.6747,0.81145 89.1559,92.76283 88.6797,95.391698 -0.3181,1.746813 -5.9344,-3.224443 -12.4835,-11.047326 l 0,0 z"
       id="path3061"
       inkscape:connector-curvature="0" />
    <path
       style="fill:#aaffee;fill-rule:evenodd;stroke:none"
       d="m 898.88849,443.99319 c -32.93107,17.29638 -61.8264,32.71821 -64.21167,34.27053 -3.99748,2.60145 -5.44712,0.94038 -18.52871,-21.23003 -7.80564,-13.22884 -14.155,-24.49576 -14.10966,-25.03771 0.0449,-0.54194 8.09427,-3.86076 17.88638,-7.37492 34.24753,-12.29073 70.78638,-41.62797 100.29478,-80.52728 2.33703,-3.08086 5.98522,1.12827 25.52107,29.44757 21.77356,31.56248 22.57551,33.17574 17.90861,36.02309 -2.6872,1.63933 -31.82952,17.13234 -64.7608,34.42875 z"
       id="path3063"
       inkscape:connector-curvature="0" />
    <path
       style="fill:#aaffee;fill-rule:evenodd;stroke:none"
       d="m 1033.414,165.55285 c -15.5492,-3.91045 -15.5679,-4.47215 -0.6529,-19.65509 7.398,-7.53079 7.8524,-7.01295 12.7563,14.5357 l 1.9706,8.65869 -14.0736,-3.5394 z"
       id="path3065"
       inkscape:connector-curvature="0" />
    <path
       style="fill:#aaffee;fill-rule:evenodd;stroke:none"
       d=""
       id="path3067"
       inkscape:connector-curvature="0" />
    <path
       style="fill:#aaffee;fill-rule:evenodd;stroke:none"
       d="m 1271.2378,219.37134 c -9.9921,-2.13106 -22.49,-4.98405 -27.7732,-6.34012 l -9.6056,-2.46534 13.8379,-9.13174 13.8381,-9.13191 13.9908,14.64577 c 7.6949,8.0551 13.9656,15.01757 13.9349,15.47189 -0.033,0.45414 -8.2309,-0.91746 -18.2229,-3.04855 l 0,0 z"
       id="path3073"
       inkscape:connector-curvature="0" />
    <path
       style="fill:#008080;fill-rule:evenodd;stroke:none"
       d=""
       id="path3949"
       inkscape:connector-curvature="0" />
    <path
       style="fill:#008080;fill-rule:evenodd;stroke:none"
       d="m 1089.2176,136.93253 c -3.5175,-11.24747 -4.4015,-23.34386 -1.8304,-25.0576 1.5166,-1.01081 6.6413,-2.55154 11.3885,-3.42409 l 8.6311,-1.58641 -3.9179,10.19745 c -4.0176,10.45733 -9.9972,22.44463 -11.824,23.70502 -0.5646,0.38937 -1.6654,-1.33606 -2.4473,-3.83437 z"
       id="path3963"
       inkscape:connector-curvature="0" />
    <path
       style="fill:#ffffff;fill-rule:evenodd;stroke:none"
       d="m 911.23048,138.15227 -10.79154,-2.1322 -5.27808,-11.09001 c -2.90291,-6.09955 -6.6545,-15.00827 -8.33677,-19.79719 -2.53661,-7.221109 -2.44932,-8.285089 0.51139,-6.233519 5.70367,3.952229 27.92857,29.018319 31.46127,35.483339 l 3.22509,5.90192 -10.79143,-2.13227 z"
       id="path3965"
       inkscape:connector-curvature="0" />
    <path
       style="fill:#ffffff;fill-rule:evenodd;stroke:none"
       d=""
       id="path4075"
       inkscape:connector-curvature="0" />
    <path
       style="fill:#ffffff;fill-rule:evenodd;stroke:none"
       d=""
       id="path4077"
       inkscape:connector-curvature="0" />
    <path
       style="fill:#ffffff;fill-rule:evenodd;stroke:none"
       d=""
       id="path4079"
       inkscape:connector-curvature="0" />
    <path
       style="fill:#ffffff;fill-rule:evenodd;stroke:none"
       d=""
       id="path4081"
       inkscape:connector-curvature="0" />
    <path
       style="fill:#ffffff;fill-rule:evenodd;stroke:none"
       d=""
       id="path4083"
       inkscape:connector-curvature="0" />
    <path
       style="fill:#ffffff;fill-rule:evenodd;stroke:none"
       d=""
       id="path4085"
       inkscape:connector-curvature="0" />
    <path
       style="fill:#ffffff;fill-rule:evenodd;stroke:none"
       d="m 569.98094,257.28675 c -0.25997,-0.35599 -0.7951,-2.52488 -1.18993,-4.81966 l -0.71682,-4.17236 1.24907,2.60942 c 0.68697,1.43512 1.1574,2.86768 1.04601,3.18353 -0.11188,0.316 -0.13837,1.31053 -0.0589,2.21027 0.0794,0.89969 -0.0684,1.34458 -0.3285,0.98857 z"
       id="path4091"
       inkscape:connector-curvature="0" />
    <path
       style="fill:#ffffff;fill-rule:evenodd;stroke:none"
       d=""
       id="path4095"
       inkscape:connector-curvature="0" />
    <path
       style="fill:#ffffff;fill-rule:evenodd;stroke:none"
       d=""
       id="path4097"
       inkscape:connector-curvature="0" />
    <path
       style="fill:#ffffff;fill-rule:evenodd;stroke:none"
       d=""
       id="path4099"
       inkscape:connector-curvature="0" />
    <path
       style="fill:#ffffff;fill-rule:evenodd;stroke:none"
       d=""
       id="path4105"
       inkscape:connector-curvature="0" />
    <path
       style="fill:#ffffff;fill-rule:evenodd;stroke:none"
       d=""
       id="path4107"
       inkscape:connector-curvature="0" />
    <path
       style="fill:#ffffff;fill-rule:evenodd;stroke:none"
       d=""
       id="path4109"
       inkscape:connector-curvature="0" />
    <path
       style="fill:#ffffff;fill-rule:evenodd;stroke:none"
       d=""
       id="path4115"
       inkscape:connector-curvature="0" />
    <path
       style="fill:#ffffff;fill-rule:evenodd;stroke:none"
       d=""
       id="path4117"
       inkscape:connector-curvature="0" />
    <path
       style="fill:#ffffff;fill-rule:evenodd;stroke:none"
       d="m 599.10612,350.82999 c -1.88105,0.42345 -5.01383,-1.94841 -7.68241,-5.81646 -3.5635,-5.1658 -16.55486,-27.37637 -22.24835,-38.03687 -30.71732,-57.51453 -32.60897,-95.11214 -9.61463,-191.09251 2.20622,-9.20943 4.19403,-16.711179 4.41708,-16.670249 0.46413,0.0862 21.55785,34.209449 28.60011,46.268359 7.71095,13.20357 10.22652,20.02704 12.02577,32.61898 1.29925,9.09238 0.74509,8.24554 -1.99583,-3.04988 -3.47214,-14.30892 -9.17746,-26.47209 -23.84863,-50.84166 -8.38958,-13.93555 -13.07844,-21.08693 -13.92899,-21.24393 -1.10284,-0.2035 -2.22313,3.91914 -7.22327,26.58203 -4.99689,22.64755 -9.93511,51.53628 -11.21075,65.58214 -3.13629,34.53513 0.95725,61.64577 13.64667,90.37836 6.81326,15.42717 22.80065,44.53478 30.97498,56.39453 l 4.90971,7.12435 3.82408,-1.17942 c 3.2257,-0.99464 4.38956,-1.71824 7.43941,-4.62496 7.46111,-7.11125 21.87113,-24.49854 26.30616,-31.74128 2.1526,-3.51645 2.24398,-4.09508 1.40215,-8.92 -0.49486,-2.83791 -1.42672,-7.33469 -2.07014,-9.99288 -1.28362,-5.30192 -0.51588,-5.04277 1.32489,0.44712 0.6411,1.91139 1.90789,5.20051 2.81509,7.30903 2.43575,5.66037 1.10521,8.34149 -12.22882,24.64144 -14.05105,17.1766 -21.80816,25.00286 -25.63464,25.86409 l 0,0 z"
       id="path4119"
       inkscape:connector-curvature="0" />
    <path
       style="fill:#ffffff;fill-rule:evenodd;stroke:none"
       d="m 598.23651,355.32922 c -0.71309,0.0675 -2.36396,-0.7845 -3.66859,-1.8922 -2.81548,-2.39015 -6.54321,-8.46679 -18.78616,-30.62535 -20.52993,-37.15713 -28.44626,-56.97121 -32.07051,-80.27188 -3.67454,-23.62488 -1.70104,-60.26227 4.88912,-90.75557 4.42757,-20.48672 11.63575,-47.60834 12.60552,-47.43041 0.22175,0.04 -1.18453,6.62212 -3.12433,14.6257 -10.08691,41.61868 -15.10944,75.81818 -14.73902,100.36322 0.55118,36.51596 10.07012,63.40043 40.79481,115.21679 7.66965,12.93472 10.1246,15.98951 13.44412,16.73014 2.37541,0.52994 2.61963,0.41895 7.53215,-3.4134 5.48873,-4.28231 5.00876,-3.30414 -1.66978,3.40321 -2.40537,2.41589 -4.40986,3.97486 -5.20727,4.04973 z"
       id="path4121"
       inkscape:connector-curvature="0" />
    <path
       style="fill:#ffffff;fill-rule:evenodd;stroke:none"
       d="m 597.42786,359.44034 c -3.12825,-1.37199 -17.17781,-24.04127 -31.99225,-51.61934 -13.07183,-24.33452 -18.55293,-37.93264 -21.86723,-54.25104 -4.09227,-20.14818 -4.84807,-47.60128 -1.99499,-72.46799 2.01011,-17.52058 7.33924,-43.55266 12.29606,-60.06513 3.3027,-11.00208 3.0758,-6.77072 -0.33799,6.29654 -11.37516,43.54556 -15.17169,84.85974 -10.55372,114.84435 3.58745,23.29212 11.30869,43.00159 30.64274,78.21981 10.32023,18.79948 16.92545,29.88703 19.44873,32.64739 2.71971,2.97505 5.8294,3.90705 7.42133,2.22403 0.60871,-0.64279 2.48927,-2.56084 4.17926,-4.26184 7.61776,-7.66557 34.61469,-39.09308 36.16014,-42.09422 0.77194,-1.49934 -0.30609,-5.23496 -8.28926,-28.72789 -4.56687,-13.43931 -2.85293,-10.56691 2.67169,4.47757 8.00977,21.81202 8.21231,22.66169 6.14261,25.77762 -3.53289,5.31905 -32.91725,39.06359 -40.5738,46.59441 -1.49922,1.4747 -3.00833,2.55724 -3.3537,2.40569 l 0,0 z"
       id="path4123"
       inkscape:connector-curvature="0" />
    <path
       style="fill:#ffffff;fill-rule:evenodd;stroke:none"
       d=""
       id="path4125"
       inkscape:connector-curvature="0" />
    <path
       style="fill:#ffffff;fill-rule:evenodd;stroke:none"
       d=""
       id="path4127"
       inkscape:connector-curvature="0" />
    <path
       style="fill:#ffffff;fill-rule:evenodd;stroke:none"
       d=""
       id="path4129"
       inkscape:connector-curvature="0" />
    <path
       style="fill:#ffffff;fill-rule:evenodd;stroke:none"
       d="m 560.58082,315.2377 c -4.63686,-6.53753 -13.60972,-21.51889 -17.17056,-28.66826 -4.53891,-9.11303 -6.5785,-17.77094 -9.9354,-42.17468 -6.47438,-47.06721 -3.0974,-80.97433 12.62135,-126.72649 3.15537,-9.1835 10.53976,-27.948603 13.81149,-35.097022 l 1.3213,-2.886927 12.51637,19.02415 c 6.88379,10.463359 12.49505,19.201439 12.46909,19.418129 -0.0262,0.21679 -5.55316,-7.58737 -12.28273,-17.34258 -6.72968,-9.755169 -12.41076,-17.61581 -12.62507,-17.468098 -1.20043,0.828215 -8.62855,19.333288 -14.15259,35.256868 -9.91988,28.59544 -14.99251,57.54989 -14.97888,85.50004 0.008,17.55853 2.72804,45.42395 5.95113,60.97677 2.61568,12.6223 7.22761,22.91894 20.22319,45.15114 5.8693,10.04089 6.01741,10.37517 2.23135,5.03698 z"
       id="path4131"
       inkscape:connector-curvature="0" />
    <path
       style="fill:#ffffff;fill-rule:evenodd;stroke:none"
       d="m 574.02128,329.66658 c -6.74891,-9.58885 -16.8429,-26.22758 -21.52486,-35.48117 -6.79449,-13.42937 -10.37224,-24.50978 -13.15119,-40.72776 -7.65351,-44.67076 -3.28578,-94.86633 12.02556,-138.20581 5.12037,-14.49294 10.57742,-28.221016 11.17459,-28.111382 0.75951,0.139221 1.07041,-0.807036 -3.52176,10.720903 -19.58464,49.165069 -26.45384,103.064139 -19.22482,150.848409 3.6213,23.93921 10.47028,40.26056 31.68346,75.50287 7.56481,12.56797 7.60212,12.64821 2.53861,5.45403 z"
       id="path4133"
       inkscape:connector-curvature="0" />
    <path
       style="fill:#ffffff;fill-rule:evenodd;stroke:none"
       d="m 583.93006,342.78945 c -2.92899,-4.06631 -18.90644,-30.53518 -23.668,-39.20936 -15.8166,-28.81343 -20.80683,-47.73963 -22.23379,-84.32625 -1.40215,-35.95165 5.12151,-76.2414 18.12087,-111.9142 3.62283,-9.941519 3.01658,-5.78606 -1.0696,7.33362 -7.04548,22.62022 -10.78955,39.22759 -13.39289,59.40845 -4.94774,38.35482 -2.62099,74.45001 6.34668,98.45148 5.43511,14.54672 16.69834,36.71865 31.50012,62.00844 3.68124,6.28986 5.65975,10.0014 4.39665,8.24783 z"
       id="path4135"
       inkscape:connector-curvature="0" />
    <path
       style="fill:#ffffff;fill-rule:evenodd;stroke:none"
       d=""
       id="path4137"
       inkscape:connector-curvature="0" />
    <path
       style="fill:#ffffff;fill-rule:evenodd;stroke:none"
       d=""
       id="path4147"
       inkscape:connector-curvature="0" />
    <path
       style="fill:#ffffff;fill-rule:evenodd;stroke:none"
       d=""
       id="path4149"
       inkscape:connector-curvature="0" />
    <path
       style="fill:#ffffff;fill-rule:evenodd;stroke:none"
       d=""
       id="path4151"
       inkscape:connector-curvature="0" />
    <path
       style="fill:#ffffff;fill-rule:evenodd;stroke:none"
       d=""
       id="path4153"
       inkscape:connector-curvature="0" />
    <path
       style="fill:#ffffff;fill-rule:evenodd;stroke:none"
       d="m 616.61826,343.16898 c 2.70129,-3.00261 8.34953,-9.24905 12.55241,-13.88019 9.26375,-10.20872 15.86503,-18.61732 16.60668,-21.15461 0.57375,-1.96271 -1.76318,-9.20586 -6.63704,-20.572 -1.3815,-3.222 -2.15612,-5.5177 -1.72169,-5.10162 1.39787,1.33811 9.74698,21.16322 9.79716,23.26369 0.11298,4.74198 -7.48359,14.61574 -26.27777,34.1541 -8.68572,9.02961 -11.21466,10.95604 -4.31965,3.29067 z"
       id="path4155"
       inkscape:connector-curvature="0" />
    <path
       style="fill:#ffffff;fill-rule:evenodd;stroke:none"
       d=""
       id="path4157"
       inkscape:connector-curvature="0" />
    <path
       style="fill:#ffffff;fill-rule:evenodd;stroke:none"
       d=""
       id="path4159"
       inkscape:connector-curvature="0" />
    <path
       style="fill:#ffffff;fill-rule:evenodd;stroke:none"
       d=""
       id="path4161"
       inkscape:connector-curvature="0" />
    <path
       style="fill:#ffffff;fill-rule:evenodd;stroke:none"
       d=""
       id="path4163"
       inkscape:connector-curvature="0" />
    <path
       style="fill:#ffffff;fill-rule:evenodd;stroke:none"
       d="m 599.92548,383.02225 c -1.52075,-0.7418 -15.75547,-14.17225 -21.29337,-20.09058 -37.112,-39.66098 -58.98494,-90.19618 -62.47335,-144.33881 -3.06152,-47.51091 8.14055,-95.42656 32.16305,-137.576016 3.08723,-5.416825 7.0559,-12.002561 8.81946,-14.635112 l 3.20617,-4.786511 1.24481,1.437905 c 0.6847,0.790859 15.41242,23.684841 32.72774,50.875804 l 31.48266,49.43792 -1.85796,8.19937 c -10.66265,47.05622 3.75015,94.97452 38.15714,126.86149 3.0998,2.87296 6.39202,5.74156 7.31621,6.37479 1.6777,1.14963 1.67476,1.15724 -1.89579,5.01449 -1.9671,2.12445 -17.88493,19.51617 -35.37279,38.64843 -17.4882,19.13203 -31.98895,34.69171 -32.22423,34.57705 l 0,0 z"
       id="path4179"
       inkscape:connector-curvature="0" />
    <path
       style="fill:#008080;fill-rule:evenodd;stroke:none"
       d="m 586.22007,368.74712 c -55.80495,-57.75506 -77.58136,-130.18243 -62.74329,-208.68203 6.74741,-35.69676 26.69895,-86.976497 36.46042,-93.71029 1.28608,-0.887432 15.88892,20.368737 32.4503,47.23578 l 30.11166,48.8493 -2.1626,27.09619 c -2.90871,36.44524 5.17795,62.93195 28.49361,93.32765 l 18.33894,23.90771 -9.59341,11.14515 c -5.27634,6.12991 -18.43624,20.74139 -29.24392,32.46999 -10.80801,11.72852 -21.63327,23.83627 -24.05672,26.90554 -3.53415,4.47611 -7.10726,2.78515 -18.05493,-8.54519 z"
       id="path4181"
       inkscape:connector-curvature="0" />
    <path
       style="fill:#ffffff;fill-rule:evenodd;stroke:none"
       d="m 667.6362,300.61547 c -34.54146,-29.46839 -50.93468,-76.4838 -42.30184,-121.32023 2.29587,-11.92395 2.30434,-11.93918 4.71381,-8.45846 6.11609,8.83472 66.79781,104.93053 66.67896,105.59281 -0.12986,0.72579 -22.44819,25.91429 -24.06697,27.16276 -0.44263,0.34249 -2.70418,-0.99777 -5.02396,-2.97688 z"
       id="path4183"
       inkscape:connector-curvature="0" />
    <path
       style="fill:#ffffff;fill-rule:evenodd;stroke:none"
       d="m 720.31069,326.83183 c -18.3082,-4.5344 -45.84344,-17.74987 -44.95447,-21.57588 0.37652,-1.62197 22.53001,-26.31129 23.45599,-26.14128 0.95083,0.17457 30.74775,47.86808 30.55655,48.90956 -0.10138,0.55296 -4.17767,0.0163 -9.05807,-1.1924 z"
       id="path4185"
       inkscape:connector-curvature="0" />
    <path
       style="fill:#ffffff;fill-rule:evenodd;stroke:none"
       d="M 769.1747,105.85135 C 731.19469,97.149491 696.36033,89.059624 691.7651,87.874004 l -8.3551,-2.155839 13.35153,-8.211937 c 37.78059,-23.237114 86.8443,-27.955375 132.21344,-12.714725 6.51379,2.188142 18.76056,7.769984 27.21475,12.404192 l 15.37148,8.425587 -16.07557,17.623898 c -8.84136,9.69317 -16.34113,17.80481 -16.66554,18.02607 -0.32436,0.22178 -31.66519,-6.7178 -69.6451,-15.41963 z"
       id="path4187"
       inkscape:connector-curvature="0" />
    <path
       style="fill:#ffffff;fill-rule:evenodd;stroke:none"
       d="m 625.58811,159.35216 c -4.54081,-6.5822 -60.87996,-96.228485 -60.78863,-96.726023 0.0677,-0.374017 25.26204,5.037584 55.98555,12.02561 48.62085,11.058827 55.56133,13.011245 53.55205,15.065348 -1.26966,1.298011 -5.83631,5.736926 -10.14807,9.864266 -8.14586,7.797439 -20.74724,24.212819 -26.05132,33.936359 -1.68588,3.09069 -5.04992,10.38435 -7.47546,16.20828 -2.4253,5.8238 -4.70876,10.15561 -5.07412,9.62616 z"
       id="path4189"
       inkscape:connector-curvature="0" />
    <path
       style="fill:#ffffff;fill-rule:evenodd;stroke:none"
       d="m 911.62326,138.57511 -11.17711,-2.54371 -5.37796,-10.57093 c -5.9132,-11.6233 -11.89218,-27.771239 -10.61011,-28.655589 1.62804,-1.12318 18.4673,16.397649 28.83625,30.003439 5.84068,7.66388 10.36892,14.01892 10.06282,14.12231 -0.30613,0.10367 -5.58644,-0.9566 -11.73391,-2.35557 l 0,0 z"
       id="path4191"
       inkscape:connector-curvature="0" />
    <path
       style="fill:#ffffff;fill-rule:evenodd;stroke:none"
       d="m 917.23674,155.32806 c -1.82274,-1.8448 -5.66369,-6.02872 -8.5353,-9.29768 l -5.22123,-5.94348 11.15521,1.9445 c 12.10913,2.11072 13.53001,3.60031 10.23239,10.72748 -2.79591,6.04286 -3.8485,6.39727 -7.63108,2.56918 z"
       id="path4193"
       inkscape:connector-curvature="0" />
    <path
       style="fill:#ffffff;fill-rule:evenodd;stroke:none"
       d="m 931.46049,166.7759 c -3.80102,-2.62778 -6.94435,-5.34607 -6.98545,-6.04024 -0.0403,-0.69457 0.92532,-3.1383 2.14709,-5.43067 2.65069,-4.97358 3.05516,-4.57922 8.37424,8.16412 l 3.37479,8.08498 -6.91097,-4.77782 z"
       id="path4195"
       inkscape:connector-curvature="0" />
    <path
       style="fill:#ffffff;fill-rule:evenodd;stroke:none"
       d="m 981.02647,186.90038 c -8.66365,-1.46652 -20.82141,-4.86541 -27.01716,-7.55331 l -11.26512,-4.88695 -6.39172,-13.78632 c -3.68356,-7.94522 -5.7602,-13.9694 -4.90139,-14.21833 0.81967,-0.23763 19.29849,3.63246 41.06401,8.60005 l 39.57381,9.03205 -2.8228,3.88205 c -1.5524,2.13508 -4.9972,7.86789 -7.6551,12.73956 l -4.8324,8.85754 -15.75213,-2.66634 0,0 z"
       id="path4197"
       inkscape:connector-curvature="0" />
    <path
       style="fill:#ffffff;fill-rule:evenodd;stroke:none"
       d="m 974.273,152.80397 c -21.59804,-5.03702 -39.73626,-9.50958 -40.307,-9.93911 -1.18294,-0.89031 11.67937,-22.10924 15.31793,-25.27005 2.01978,-1.75457 3.23507,-1.3544 7.76864,2.55816 19.69634,16.99787 46.84133,21.01543 70.05153,10.36784 6.4141,-2.94234 8.4417,-3.3182 8.848,-1.63984 0.2897,1.19765 1.2273,3.19234 2.0831,4.43293 1.07,1.55052 0.733,2.83083 -1.079,4.09634 -2.6273,1.83509 -19.5348,19.23426 -22.0758,22.7177 -0.9017,1.23608 -14.1429,-1.15207 -40.6074,-7.32397 l 0,0 z"
       id="path4199"
       inkscape:connector-curvature="0" />
    <path
       style="fill:#ffffff;fill-rule:evenodd;stroke:none"
       d="m 880.80458,73.928764 c -0.37846,-0.566285 -0.47635,-6.360529 -0.21311,-12.87956 0.91747,-22.724271 8.45644,-47.158351 20.33878,-65.9191523 3.18117,-5.022911 6.34882,-9.5220667 7.03926,-9.9984097 1.38402,-0.954646 11.56257,4.9308167 26.07483,15.07716269 L 943.4802,6.8061025 914.39343,38.66928 c -15.99787,17.524723 -29.94403,32.858438 -30.99185,34.074803 -1.04709,1.217052 -2.21647,1.749382 -2.59699,1.184681 z"
       id="path4201"
       inkscape:connector-curvature="0" />
    <path
       style="fill:#ffffff;fill-rule:evenodd;stroke:none"
       d="m 936.59168,-1.1872653 c -4.54584,-3.316759 -12.11889,-8.383335 -16.82915,-11.2591307 -4.71038,-2.8758 -8.43438,-5.93645 -8.2757,-6.801393 0.15894,-0.864904 4.70586,-5.914989 10.10461,-11.222362 20.6855,-20.335183 52.72868,-34.812743 81.81006,-36.962673 l 7.5321,-0.55677 -29.90499,33.256371 c -16.44773,18.291137 -31.31516,34.67856469 -33.03865,36.4164275 -3.07813,3.104257 -3.27914,3.053536 -11.39828,-2.8705098 l 0,0 z"
       id="path4203"
       inkscape:connector-curvature="0" />
    <path
       style="fill:#ffffff;fill-rule:evenodd;stroke:none"
       d="m 1094.761,106.6806 -10.5673,2.86649 -0.4541,-5.00589 c -1.2561,-13.854219 7.7248,-49.379875 15.2389,-60.278765 2.5474,-3.694601 2.6999,-3.531129 5.9733,6.419729 5.3052,16.126379 6.4703,49.540126 1.8257,52.279246 -0.7955,0.46891 -6.202,2.14246 -12.0141,3.71912 z"
       id="path4205"
       inkscape:connector-curvature="0" />
    <path
       style="fill:#ffffff;fill-rule:evenodd;stroke:none"
       d="m 1002.5102,81.009607 c -4.44224,0.667035 -10.12804,-3.062036 -11.90287,-7.806485 -0.77011,-2.058677 -0.86396,-6.99541 -0.2076,-10.970659 l 1.19278,-7.22745 4.9855,5.053875 c 2.74215,2.779602 6.68899,7.859453 8.77079,11.288501 4.0711,6.705776 3.4814,8.713142 -2.8385,9.662096 l 0,0 z"
       id="path4207"
       inkscape:connector-curvature="0" />
    <path
       style="fill:#ffffff;fill-rule:evenodd;stroke:none"
       d="m 1056.8368,171.3265 -4.766,-1.06204 -4.9517,-17.36626 -4.9507,-17.36659 5.9092,-4.07903 c 5.8872,-4.06359 24.71,-14.34342 30.5442,-16.68163 l 3.0681,-1.22945 1.0519,7.75611 c 0.5793,4.26568 2.3727,11.57665 3.9861,16.24626 l 2.9339,8.49012 -7.1512,7.48442 c -3.9331,4.11641 -10.2464,10.04616 -14.0297,13.17716 -6.3147,5.22642 -7.2685,5.60573 -11.6444,4.63074 z"
       id="path4209"
       inkscape:connector-curvature="0" />
    <path
       style="fill:#ffffff;fill-rule:evenodd;stroke:none"
       d="m 1154.6994,193.88041 c -18.3358,-4.22326 -33.2604,-8.10076 -33.166,-8.61672 0.4229,-2.30718 24.1003,-2.2432 34.5485,0.0932 10.3582,2.3165 32.5625,12.89978 32.12,15.30955 -0.084,0.49173 -15.166,-2.56296 -33.5023,-6.78614 l 0,0 z"
       id="path4211"
       inkscape:connector-curvature="0" />
    <path
       style="fill:#ffffff;fill-rule:evenodd;stroke:none"
       d="m 1190.4004,214.93791 c -15.7784,-0.48455 -32.6889,-5.20938 -46.8715,-13.09602 -12.5986,-7.00563 -19.9356,-12.15575 -16.2106,-11.37871 1.0622,0.2214 12.9432,2.95912 26.4021,6.08343 13.4591,3.12405 28.071,6.44398 32.4703,7.37727 5.3574,1.13629 9.3872,3.0859 12.1995,5.90224 2.3102,2.31295 3.8001,4.48123 3.3116,4.81813 -0.4884,0.33712 -5.5742,0.46908 -11.3011,0.29328 z"
       id="path4213"
       inkscape:connector-curvature="0" />
    <path
       style="fill:#ffffff;fill-rule:evenodd;stroke:none"
       d="m 1135.6282,264.09118 c -8.9755,-3.46777 -9.6713,-4.13601 -6.5486,-6.29019 2.7448,-1.89343 8.2749,0.0724 12.9537,4.6049 4.7168,4.56902 2.5408,5.14158 -6.4051,1.68529 z"
       id="path4215"
       inkscape:connector-curvature="0" />
    <path
       style="fill:#ffffff;fill-rule:evenodd;stroke:none"
       d="m 1258.9238,253.16615 c -16.7005,8.81237 -30.7696,15.94809 -31.2639,15.85725 -0.4943,-0.0899 -1.3838,-3.74314 -1.9771,-8.11704 -1.5235,-11.22875 -7.3722,-27.27905 -12.8156,-35.16998 -2.5481,-3.69367 -4.3966,-7.22216 -4.1077,-7.84111 0.289,-0.61882 4.0678,-1.98296 8.3978,-3.03123 6.9281,-1.67708 11.8612,-0.99337 41.1244,5.69959 18.2886,4.18295 35.1285,8.06804 37.4222,8.63364 l 4.1696,1.02815 -5.2917,3.45936 c -2.9106,1.90262 -18.9565,10.66931 -35.6578,19.48144 z"
       id="path4217"
       inkscape:connector-curvature="0" />
    <path
       style="fill:#ffffff;fill-rule:evenodd;stroke:none"
       d="m 1294.5844,221.72555 c -2.1714,-1.48667 -27.2521,-27.7308 -29.1991,-30.55317 -0.8791,-1.27341 0.2904,-3.62942 3.6701,-7.39481 2.7276,-3.03911 5.4978,-5.42669 6.1558,-5.30597 1.7995,0.33029 13.7383,23.76115 17.7469,34.83037 1.9564,5.40271 2.6788,9.1444 1.6263,8.42358 z"
       id="path4219"
       inkscape:connector-curvature="0" />
    <path
       style="fill:#ffffff;fill-rule:evenodd;stroke:none"
       d="m 1260.6543,186.83027 c -0.2641,-0.38401 -8.8132,-9.3794 -18.9969,-19.99031 -10.1833,-10.61095 -18.6728,-19.52048 -18.8648,-19.799 -0.1927,-0.27814 0.8391,-1.33096 2.2916,-2.33882 1.4519,-1.00782 3.6304,-3.70455 4.8394,-5.99277 1.2097,-2.2881 2.9284,-4.02658 3.8196,-3.86277 4.1964,0.77 29.4511,25.47586 36.5268,35.73266 2.8924,4.19308 2.8377,4.58528 -1.3114,9.45646 -4.7419,5.56721 -7.5604,7.87284 -8.3043,6.79455 z"
       id="path4221"
       inkscape:connector-curvature="0" />
    <path
       style="fill:#ffffff;fill-rule:evenodd;stroke:none"
       d="m 1219.3016,143.16023 c -3.847,-3.50431 -27.3226,-28.208 -28.6934,-30.1951 -1.939,-2.80958 13.6784,3.44978 26.2402,10.51677 6.3343,3.5638 11.9084,7.047 12.3867,7.74017 0.8943,1.29749 -1.7555,7.01848 -5.3805,11.61446 -1.6438,2.08401 -2.5497,2.14839 -4.5531,0.3234 z"
       id="path4223"
       inkscape:connector-curvature="0" />
    <path
       style="fill:#ffffff;fill-rule:evenodd;stroke:none"
       d="m 1217.0715,120.68684 c -7.788,-4.29155 -14.3745,-8.68763 -14.6362,-9.76936 -0.2621,-1.08154 -1.3386,-1.92341 -2.3935,-1.87002 -1.3141,0.0661 -1.6965,-1.3644 -1.215,-4.54402 0.8315,-5.493389 6.08,-9.688859 12.0658,-9.646179 4.9834,0.0354 14.2868,5.437939 17.5761,10.206549 2.9964,4.34262 4.9208,14.62147 3.6835,19.6703 -0.907,3.7024 -1.1183,3.6457 -15.0804,-4.04754 l 0,0 z"
       id="path4225"
       inkscape:connector-curvature="0" />
    <path
       style="fill:#ffffff;fill-rule:evenodd;stroke:none"
       d="m 1171.0132,103.42991 c -3.401,-0.7792 -11.2173,-2.00559 -17.37,-2.72603 -11.1447,-1.304899 -11.1845,-1.324639 -10.6534,-5.334579 0.7326,-5.529919 5.9097,-20.18824 7.0562,-19.977798 1.3622,0.249711 25.5987,25.652227 26.4388,27.710457 0.4274,1.04663 -1.7611,1.17783 -5.4716,0.32795 z"
       id="path4227"
       inkscape:connector-curvature="0" />
    <path
       style="fill:#ffffff;fill-rule:evenodd;stroke:none"
       d="m 1126.6536,100.62012 c -6.7904,0.45511 -12.9984,1.01662 -13.7956,1.24765 -0.7975,0.2312 -1.0564,-4.714849 -0.5759,-10.990917 1.0791,-14.097526 -1.2356,-31.189003 -5.9067,-43.615548 -2.7457,-7.30404 -3.1141,-10.136777 -1.639,-12.601816 1.0468,-1.749132 2.5024,-3.070267 3.2346,-2.935849 0.732,0.134721 10.0558,9.357157 20.7193,20.495197 l 19.3881,20.250882 -2.5521,4.988431 c -1.404,2.743611 -3.316,8.84063 -4.2502,13.548816 -0.9331,4.708255 -1.8301,8.610645 -1.9867,8.673015 -0.1593,0.0623 -5.8454,0.484969 -12.6362,0.940259 l 0,0 z"
       id="path4229"
       inkscape:connector-curvature="0" />
    <path
       style="fill:#ffffff;fill-rule:evenodd;stroke:none"
       d="m 1094.761,106.6806 -10.5673,2.86649 -0.4541,-5.00589 c -1.2561,-13.854219 7.7248,-49.379875 15.2389,-60.278765 2.5474,-3.694601 2.6999,-3.531129 5.9733,6.419729 5.3052,16.126379 6.4703,49.540126 1.8257,52.279246 -0.7955,0.46891 -6.202,2.14246 -12.0141,3.71912 z"
       id="path4231"
       inkscape:connector-curvature="0" />
  </g>
</svg>
